<svg width="100" height="100" viewBox="0 0 100 100" fill="none" xmlns="http://www.w3.org/2000/svg">
<path d="M50 8.33333C72.975 8.33333 91.6667 27.025 91.6667 50C91.6667 72.975 72.975 91.6667 50 91.6667C27.025 91.6667 8.33333 72.975 8.33333 50C8.33333 27.025 27.025 8.33333 50 8.33333ZM50 0C22.3875 0 0 22.3875 0 50C0 77.6125 22.3875 100 50 100C77.6125 100 100 77.6125 100 50C100 22.3875 77.6125 0 50 0ZM50 25C36.1958 25 25 36.1917 25 50C25 61.0458 32.1625 70.4167 42.1 73.7208C43.35 73.9542 43.75 73.1792 43.75 72.5167V67.8625C36.7958 69.375 35.3458 64.9167 35.3458 64.9167C34.2125 62.0292 32.5708 61.2583 32.5708 61.2583C30.3042 59.7042 32.7417 59.7375 32.7417 59.7375C35.2542 59.9125 36.575 62.3167 36.575 62.3167C38.8042 66.1375 42.4208 65.0333 43.85 64.3958C44.075 62.7792 44.7208 61.6792 45.4375 61.0542C39.8833 60.4208 34.05 58.275 34.05 48.7C34.05 45.9708 35.025 43.7417 36.625 41.9917C36.3667 41.3542 35.5083 38.8083 36.8667 35.3667C36.8667 35.3667 38.9667 34.6958 43.7417 37.9292C45.7375 37.375 47.875 37.1 50 37.0875C52.125 37.0958 54.2625 37.375 56.2625 37.9292C61.0375 34.6958 63.1292 35.3667 63.1292 35.3667C64.4917 38.8083 63.6333 41.3542 63.3792 41.9833C64.9833 43.7333 65.95 45.9625 65.95 48.6917C65.95 58.2958 60.1 60.4083 54.5333 61.025C55.4333 61.8 56.25 63.3208 56.25 65.6542V72.5125C56.25 73.1792 56.65 73.9583 57.9167 73.7125C67.8458 70.4083 75 61.0417 75 50C75 36.1917 63.8042 25 50 25Z" fill="#3E464F"/>
</svg>
