<svg width="100" height="100" viewBox="0 0 100 100" fill="none" xmlns="http://www.w3.org/2000/svg">
<path fill-rule="evenodd" clip-rule="evenodd" d="M50 29.1667C38.4941 29.1667 29.1667 38.4942 29.1667 50.0001C29.1667 61.5059 38.4941 70.8334 50 70.8334C61.5058 70.8334 70.8333 61.5059 70.8333 50.0001C70.8333 38.4942 61.5058 29.1667 50 29.1667ZM37.5 50.0001C37.5 56.9038 43.0962 62.5001 50 62.5001C56.9037 62.5001 62.5 56.9038 62.5 50.0001C62.5 43.0963 56.9037 37.5001 50 37.5001C43.0962 37.5001 37.5 43.0963 37.5 50.0001Z" fill="#3E464F"/>
<path d="M75 20.8333C72.6988 20.8333 70.8333 22.6988 70.8333 24.9999C70.8333 27.3011 72.6988 29.1666 75 29.1666C77.3013 29.1666 79.1667 27.3011 79.1667 24.9999C79.1667 22.6988 77.3013 20.8333 75 20.8333Z" fill="#3E464F"/>
<path fill-rule="evenodd" clip-rule="evenodd" d="M20.8333 4.16675C11.6286 4.16675 4.16666 11.6287 4.16666 20.8334V79.1667C4.16666 88.3713 11.6286 95.8334 20.8333 95.8334H79.1666C88.3712 95.8334 95.8333 88.3713 95.8333 79.1667V20.8334C95.8333 11.6287 88.3712 4.16675 79.1666 4.16675H20.8333ZM79.1666 12.5001H20.8333C16.2309 12.5001 12.5 16.231 12.5 20.8334V79.1667C12.5 83.7692 16.2309 87.5001 20.8333 87.5001H79.1666C83.7691 87.5001 87.5 83.7692 87.5 79.1667V20.8334C87.5 16.231 83.7691 12.5001 79.1666 12.5001Z" fill="#3E464F"/>
</svg>
